<svg width="430" height="430" viewBox="0 0 430 430" fill="none" xmlns="http://www.w3.org/2000/svg">
<path d="M336.111 321.659C336.111 278.435 301.139 243.464 257.915 243.464H172.085C128.861 243.464 93.8894 278.435 93.8894 321.659V353.02C93.8894 361.479 100.698 368.288 109.157 368.288H128.448C166.721 371.28 169.197 385 187.869 385H239.655H239.965C258.637 385 261.216 371.28 299.385 368.288H299.489H320.843C329.302 368.288 336.111 361.376 336.111 353.02V321.659Z" fill="#4BB3FD"/>
<g style="mix-blend-mode:multiply" opacity="0.5">
<path d="M228.966 243.464H172.085C128.861 243.464 93.8894 278.435 93.8894 321.659V353.02C93.8894 361.479 100.698 368.288 109.157 368.288H128.448C128.597 368.3 128.745 368.311 128.892 368.323C128.89 368.223 128.889 368.122 128.889 368.02V336.659C128.889 293.435 159.635 253.208 194.175 253.208C208.811 253.208 220.433 249.106 228.966 243.464Z" fill="#4BB3FD"/>
</g>
<path d="M181.06 242.948C181.06 260.279 195.193 274.412 212.524 274.412H215C232.331 274.412 246.464 260.279 246.464 242.948V218.347H181.06V242.948Z" fill="#F9C9C0"/>
<g style="mix-blend-mode:multiply" opacity="0.5">
<path d="M181.061 243.206C181.06 243.12 181.06 243.034 181.06 242.948V218.347H246.464C246.464 230.365 228.714 253.208 194.174 253.208C190.488 253.208 186.844 253.666 183.277 254.538C181.907 251.099 181.127 247.366 181.064 243.464C181.063 243.378 181.062 243.292 181.061 243.206Z" fill="#F9C9C0"/>
</g>
<path d="M247.496 327.024C247.496 316.914 248.527 308.764 249.765 308.764H249.971C250.487 308.764 252.344 310.105 255.955 313.819C262.454 307.526 268.85 307.526 275.349 313.819C278.96 310.105 280.817 308.764 281.332 308.764H281.539C282.777 308.764 283.808 316.914 283.808 327.024V325.889V328.159C283.808 337.03 276.587 344.252 267.715 344.252H263.589C254.717 344.252 247.496 337.03 247.496 328.159V325.889" fill="#EBE6EF"/>
<path d="M247.496 327.024C247.496 316.914 248.527 308.764 249.765 308.764H249.971C250.487 308.764 252.344 310.105 255.955 313.819C262.454 307.526 268.85 307.526 275.349 313.819C278.96 310.105 280.817 308.764 281.332 308.764H281.539C282.777 308.764 283.808 316.914 283.808 327.024V325.889V328.159C283.808 337.03 276.587 344.252 267.715 344.252H263.589C254.717 344.252 247.496 337.03 247.496 328.159V325.889" stroke="#121331" stroke-width="7" stroke-miterlimit="10" stroke-linecap="round" stroke-linejoin="round"/>
<path d="M276.174 77.4808V171.973C276.174 205.604 248.94 232.838 215.31 232.838H213.865C180.235 232.838 153 205.604 153 171.973V77.4808" fill="#F9C9C0"/>
<g style="mix-blend-mode:multiply" opacity="0.3">
<path d="M215.31 232.838C219.339 232.838 223.277 232.447 227.087 231.701C199.099 226.22 178 201.574 178 171.973V77.4808H153V171.973C153 205.604 180.235 232.838 213.865 232.838H215.31Z" fill="#F9C9C0"/>
</g>
<path d="M276.174 141.747C276.174 141.747 278.753 102.34 238.418 81.295C238.418 81.295 226.141 126.995 149.08 142.985C149.08 142.985 122.671 65.3051 155.683 46.4267C159.397 44.3635 165.483 44.5698 168.99 46.8394C174.045 50.0374 179.1 55.2986 182.195 57.9807C184.568 60.0439 187.663 61.1787 190.861 60.9724C195.193 60.7661 201.28 59.5281 207.263 56.3302C233.477 45.5434 282.124 46.4267 283.086 87.4847C283.705 113.894 285.562 135.764 276.174 141.747Z" fill="#B26836"/>
<path d="M276.174 138.652V141.747V171.973C276.174 205.604 248.94 232.838 215.31 232.838H213.865C180.235 232.838 153 205.604 153 171.973V142.16" stroke="#121331" stroke-width="7" stroke-miterlimit="10" stroke-linecap="round" stroke-linejoin="round"/>
<path d="M246.567 243.464H257.915C301.139 243.464 336.111 278.435 336.111 321.659V353.02C336.111 361.376 329.302 368.288 320.843 368.288H299.282H299.489H299.385C261.216 371.28 258.637 385 239.965 385C239.862 385 239.759 385 239.655 385H187.869C169.197 385 166.721 371.28 128.448 368.288H109.157C100.698 368.288 93.8894 361.479 93.8894 353.02V321.659C93.8894 278.435 128.861 243.464 172.085 243.464H181.06V223.347V242.948C181.06 260.279 195.193 274.412 212.524 274.412H215C232.331 274.412 246.464 260.279 246.464 242.948V224.276L246.567 243.464Z" stroke="#121331" stroke-width="7" stroke-miterlimit="10" stroke-linecap="round" stroke-linejoin="round"/>
<path d="M276.174 141.747C276.174 141.747 278.753 102.34 238.418 81.295C238.418 81.295 226.141 126.995 149.08 142.985C149.08 142.985 122.671 65.3051 155.683 46.4267C159.397 44.3635 165.483 44.5698 168.99 46.8394C174.045 50.0374 179.1 55.2986 182.195 57.9807C184.568 60.0439 187.663 61.1787 190.861 60.9724C195.193 60.7661 201.28 59.5281 207.263 56.3302C233.477 45.5434 282.124 46.4267 283.086 87.4847C283.705 113.894 285.562 135.764 276.174 141.747Z" stroke="#121331" stroke-width="7" stroke-miterlimit="10" stroke-linecap="round" stroke-linejoin="round"/>
</svg>
