<svg width="430" height="431" viewBox="0 0 430 431" fill="none" xmlns="http://www.w3.org/2000/svg">
<path d="M257 236.999H255.4V226.799C270.9 214.899 280.4 196.499 281.1 176.999L281.4 167.899C281.8 167.099 282 166.199 282 165.299V150.799L282.3 142.399C297.5 119.599 293.3 78.9994 282.9 62.9994C273.3 48.3994 256.4 43.6994 255.7 43.4994C255.6 43.4994 255.6 43.4994 255.5 43.4994C232.1 37.7994 208.5 45.9994 196.5 51.3994C193.9 52.5994 190.8 52.2994 188.4 50.5994L172.6 39.2994C168.4 36.1994 163.3 34.9994 158.2 35.7994C153.1 36.5994 148.6 39.4994 145.6 43.7994C141.6 49.5994 134.5 61.9994 131.8 79.6994C127.3 109.899 143.3 132.499 148.6 139.099L149 151.799V165.299C149 166.199 149.2 167.099 149.6 167.799L149.9 176.899C150.5 193.999 157.6 209.899 169.9 221.799C171.7 223.499 173.6 225.199 175.6 226.699V236.899H174C124.9 236.899 85 276.799 85 325.899V353.699C85 364.399 93 373.299 103.6 374.599L131.1 377.799C138.9 378.699 146.4 380.699 153.6 383.699H153.7C173.3 391.799 193.9 395.999 215.1 395.999C236.4 395.999 257.2 391.799 276.8 383.599C283.7 380.699 290.9 378.799 298.3 377.999L327.3 374.599C337.9 373.399 345.9 364.399 345.9 353.699V325.899C346 276.899 306.1 236.999 257 236.999ZM187.6 234.099C196.3 238.199 205.7 240.299 215.5 240.299C225.2 240.299 234.7 238.199 243.4 234.099V242.699C243.4 258.099 230.9 270.599 215.5 270.599C200.1 270.599 187.6 258.099 187.6 242.699V234.099ZM161 151.599V142.599C161.6 142.499 162.3 142.499 162.9 142.399H195.5V159.299H161.3L161 151.599ZM201.5 130.399H199.6C217.2 120.499 231.9 105.299 241.6 86.1994C261 101.899 264.3 115.799 267.5 130.399H229.4C226.1 130.399 223.4 133.099 223.4 136.399V141.899H207.5V136.399C207.5 132.999 204.8 130.399 201.5 130.399ZM235.5 142.399H270V150.699L269.7 159.399H235.5V142.399ZM143.7 81.3994C145.4 70.1994 149.7 58.8994 155.5 50.4994C156.6 48.8994 158.3 47.8994 160.2 47.4994C160.6 47.3994 161 47.3994 161.4 47.3994C162.9 47.3994 164.4 47.8994 165.6 48.7994C165.6 48.7994 165.7 48.7994 165.7 48.8994L181.6 60.1994C187.4 64.2994 195 65.0994 201.6 62.1994C212.2 57.4994 232.8 50.1994 252.7 54.9994C253.7 55.2994 266.2 59.1994 272.9 69.4994C279.6 79.7994 282.9 103.599 278.2 122.099C274.5 106.899 268.3 89.8994 243 71.8994C241.5 70.7994 239.6 70.4994 237.9 70.9994C236.2 71.4994 234.7 72.7994 234 74.3994C220.7 105.699 194.3 126.099 162.5 130.199H157C152.1 123.799 140.1 105.199 143.7 81.3994ZM161.9 176.599L161.7 171.299H201.5C204.8 171.299 207.5 168.599 207.5 165.299V153.799H223.4V165.299C223.4 168.599 226.1 171.299 229.4 171.299H269.2L269 176.599C268.4 193.699 260 209.099 245.9 218.899C236.9 225.099 226.4 228.399 215.4 228.399C204.4 228.399 193.9 225.099 185 218.899C182.6 217.199 180.3 215.299 178.2 213.299C168.2 203.599 162.4 190.499 161.9 176.599ZM334 353.799C334 358.399 330.6 362.199 326 362.699L297 366.099C288.5 367.099 280.2 369.299 272.3 372.599C254.1 380.199 234.9 384.099 215.2 384.099C195.6 384.099 176.5 380.299 158.3 372.699H158.2C150 369.299 141.4 367.099 132.5 365.999L105 362.799C100.5 362.299 97 358.399 97 353.899V326.099C97 283.599 131.5 249.099 174 249.099H176.1C179.1 268.099 195.6 282.699 215.5 282.699C235.4 282.699 251.8 268.099 254.9 249.099H257C299.5 249.099 334 283.599 334 326.099V353.799ZM228.4 316.199L213 327.599L228.4 338.999C231.1 340.999 231.6 344.699 229.7 347.399C228.5 348.999 226.7 349.799 224.9 349.799C223.7 349.799 222.4 349.399 221.3 348.599L199.3 332.399C197.8 331.299 196.9 329.499 196.9 327.599C196.9 325.699 197.8 323.899 199.3 322.799L221.3 306.599C224 304.599 227.7 305.199 229.7 307.899C231.6 310.499 231 314.199 228.4 316.199ZM290.6 306.499L312.6 322.699C314.1 323.799 315 325.599 315 327.499C315 329.399 314.1 331.199 312.6 332.299L290.6 348.499C289.5 349.299 288.3 349.699 287.1 349.699C285.3 349.699 283.4 348.899 282.3 347.299C280.3 344.599 280.9 340.899 283.6 338.899L299.1 327.499L283.6 316.099C280.9 314.099 280.4 310.399 282.3 307.699C284.2 305.099 287.9 304.599 290.6 306.499ZM266.6 313.199L256.1 345.599C255.3 348.099 252.9 349.699 250.4 349.699C249.8 349.699 249.2 349.599 248.5 349.399C245.4 348.399 243.6 344.999 244.6 341.799L255.1 309.399C256.1 306.299 259.5 304.499 262.7 305.499C265.9 306.699 267.7 310.099 266.6 313.199Z" fill="url(#paint0_linear_2035_3427)"/>
<defs>
<linearGradient id="paint0_linear_2035_3427" x1="80.3511" y1="108.55" x2="340.117" y2="368.316" gradientUnits="userSpaceOnUse">
<stop stop-color="#CB5EEE"/>
<stop offset="1" stop-color="#4BE1EC"/>
</linearGradient>
</defs>
</svg>
